<svg width="91" height="90" viewBox="0 0 91 90" fill="none" xmlns="http://www.w3.org/2000/svg">
<g clip-path="url(#clip0_borrow)">
<path d="M45.5 90C70.3528 90 90.5 69.8528 90.5 45C90.5 20.1472 70.3528 0 45.5 0C20.6472 0 0.5 20.1472 0.5 45C0.5 69.8528 20.6472 90 45.5 90Z" fill="#092F62"/>
<rect x="28" y="32" width="35" height="30" rx="2" stroke="white" stroke-width="1.7" stroke-miterlimit="10"/>
<circle cx="45.5" cy="47" r="7" stroke="white" stroke-width="1.7" stroke-miterlimit="10"/>
<path d="M45.5 44V50M42.5 47H48.5" stroke="white" stroke-width="1.7" stroke-miterlimit="10"/>
<path d="M28 37H63" stroke="white" stroke-width="1.7" stroke-miterlimit="10"/>
<path d="M55 45L61 45M61 45L58 42M61 45L58 48" stroke="white" stroke-width="1.7" stroke-linecap="round" stroke-linejoin="round"/>
<path d="M36 45L30 45M30 45L33 42M30 45L33 48" stroke="white" stroke-width="1.7" stroke-linecap="round" stroke-linejoin="round"/>
<circle cx="33" cy="27" r="2.5" stroke="white" stroke-width="1.7"/>
<circle cx="45.5" cy="27" r="2.5" stroke="white" stroke-width="1.7"/>
<circle cx="58" cy="27" r="2.5" stroke="white" stroke-width="1.7"/>
<path d="M28 62L31 65M31 65L34 68M31 65V59" stroke="white" stroke-width="1.7" stroke-linecap="round" stroke-linejoin="round"/>
<path d="M63 62L60 65M60 65L57 68M60 65V59" stroke="white" stroke-width="1.7" stroke-linecap="round" stroke-linejoin="round"/>
</g>
<defs>
<clipPath id="clip0_borrow">
<rect width="90" height="90" fill="white" transform="translate(0.5)"/>
</clipPath>
</defs>
</svg>
